<svg
    version="1.0"
    xmlns="http://www.w3.org/2000/svg"
    width= {30}
    height= {25}
    viewBox="0 0 500.000000 500.000000"
    preserveAspectRatio="xMidYMid meet"
>
    <g
        id="logo"
        transform="translate(0.000000,500.000000) scale(0.100000,-0.100000)"
        fill="#0072bb"
        stroke="none"
    >
        <path
            d="M2232 4114 c-222 -35 -476 -134 -665 -257 -364 -237 -622 -608 -725
-1042 -25 -104 -27 -124 -27 -370 0 -233 2 -270 22 -358 49 -214 134 -412 257
-597 97 -146 301 -350 450 -449 460 -306 1014 -374 1529 -187 558 202 976 700
1083 1291 28 156 26 463 -4 614 -122 605 -548 1095 -1117 1284 -186 62 -285
78 -505 82 -150 3 -230 0 -298 -11z m788 -748 c336 -65 500 -192 531 -411 26
-188 -73 -355 -272 -454 -45 -23 -88 -41 -95 -41 -24 0 -15 -18 13 -25 55 -13
175 -81 226 -126 101 -90 146 -222 127 -371 -18 -143 -101 -259 -236 -330
-162 -85 -320 -110 -704 -112 l-275 -1 0 210 0 210 328 3 327 2 0 155 0 155
-327 2 -328 3 0 215 0 215 363 3 362 2 -2 161 -3 160 -520 0 c-286 -1 -532 -1
-547 -1 l-28 0 -2 -747 -3 -748 -210 0 -210 0 -3 948 -2 948 702 -4 c602 -3
715 -6 788 -21z"
        />
    </g>
</svg>